<svg width="19" height="20" viewBox="0 0 19 20" fill="none" xmlns="http://www.w3.org/2000/svg">
<path d="M4.71671 6.82615C4.71671 6.21603 3.9787 5.91088 3.54782 6.34284L0.244547 9.65439C-0.185748 10.0858 0.119781 10.8221 0.729073 10.8221H4.03234C4.41031 10.8221 4.71671 10.5157 4.71671 10.1377V6.82615Z" fill="white"/>
<path d="M0.784823 15.349C0.17553 15.349 -0.129999 16.0853 0.300296 16.5167L3.57301 19.7976C4.00389 20.2295 4.74191 19.9244 4.74191 19.3143V16.0333C4.74191 15.6554 4.43551 15.349 4.05754 15.349H0.784823Z" fill="white"/>
<path d="M10.9016 14.4035C10.9016 14.7815 10.5952 15.0879 10.2172 15.0879H5.7462C5.36824 15.0879 5.06184 14.7815 5.06184 14.4035V11.7117C5.06184 11.3337 5.36824 11.0273 5.7462 11.0273H10.2172C10.5952 11.0273 10.9016 11.3337 10.9016 11.7117V14.4035Z" fill="white"/>
<path d="M14.3234 13.1105C14.3234 13.7206 15.0614 14.0258 15.4923 13.5938L18.7417 10.3363C19.172 9.90497 18.8664 9.16867 18.2571 9.16867H15.0078C14.6298 9.16867 14.3234 9.47507 14.3234 9.85303V13.1105Z" fill="white"/>
<path d="M18.271 4.64176C18.8803 4.64176 19.1858 3.90545 18.7555 3.47408L15.492 0.202425C15.0611 -0.229534 14.3231 0.0756198 14.3231 0.685738V3.95739C14.3231 4.33536 14.6295 4.64176 15.0075 4.64176H18.271Z" fill="white"/>
<path d="M8.14485 5.55236C8.14485 5.17439 8.45125 4.86799 8.82922 4.86799H13.34C13.7179 4.86799 14.0243 5.17439 14.0243 5.55236V8.2442C14.0243 8.62217 13.7179 8.92857 13.34 8.92857H8.82922C8.45125 8.92857 8.14485 8.62217 8.14485 8.2442V5.55236Z" fill="white"/>
</svg>
