<svg width="19" height="20" viewBox="0 0 19 20" fill="none" xmlns="http://www.w3.org/2000/svg">
<path d="M4.71659 6.82615C4.71659 6.21603 3.97857 5.91088 3.5477 6.34284L0.244425 9.65439C-0.18587 10.0858 0.119659 10.8221 0.728951 10.8221H4.03222C4.41019 10.8221 4.71659 10.5157 4.71659 10.1377V6.82615Z" fill="black"/>
<path d="M0.784701 15.349C0.175408 15.349 -0.130121 16.0853 0.300174 16.5167L3.57289 19.7976C4.00377 20.2295 4.74178 19.9244 4.74178 19.3143V16.0333C4.74178 15.6554 4.43538 15.349 4.05742 15.349H0.784701Z" fill="black"/>
<path d="M10.9015 14.4035C10.9015 14.7815 10.5951 15.0879 10.2171 15.0879H5.74608C5.36812 15.0879 5.06171 14.7815 5.06171 14.4035V11.7117C5.06171 11.3337 5.36812 11.0273 5.74608 11.0273H10.2171C10.5951 11.0273 10.9015 11.3337 10.9015 11.7117V14.4035Z" fill="black"/>
<path d="M14.3233 13.1105C14.3233 13.7206 15.0613 14.0258 15.4922 13.5938L18.7415 10.3363C19.1718 9.90497 18.8663 9.16867 18.257 9.16867H15.0077C14.6297 9.16867 14.3233 9.47507 14.3233 9.85303V13.1105Z" fill="black"/>
<path d="M18.2708 4.64176C18.8801 4.64176 19.1857 3.90545 18.7554 3.47408L15.4919 0.202425C15.061 -0.229534 14.323 0.0756198 14.323 0.685738V3.95739C14.323 4.33536 14.6294 4.64176 15.0074 4.64176H18.2708Z" fill="black"/>
<path d="M8.14473 5.55236C8.14473 5.17439 8.45113 4.86799 8.8291 4.86799H13.3399C13.7178 4.86799 14.0242 5.17439 14.0242 5.55236V8.2442C14.0242 8.62217 13.7178 8.92857 13.3399 8.92857H8.8291C8.45113 8.92857 8.14473 8.62217 8.14473 8.2442V5.55236Z" fill="black"/>
</svg>
