<svg width="83" height="22" viewBox="0 0 83 22" fill="none" xmlns="http://www.w3.org/2000/svg">
<path fill-rule="evenodd" clip-rule="evenodd" d="M14.307 10.1395C14.5207 10.1395 14.694 9.96627 14.694 9.75252V8.23026C14.694 8.01652 14.5207 7.84325 14.307 7.84325H11.7915C11.5778 7.84325 11.4045 8.01652 11.4045 8.23026V9.75252C11.4045 9.96627 11.5778 10.1395 11.7915 10.1395H14.307ZM9.66281 11.7134C9.66281 11.4997 9.83608 11.3264 10.0498 11.3264H12.5783C12.792 11.3264 12.9653 11.4997 12.9653 11.7134V13.2357C12.9653 13.4494 12.792 13.6227 12.5783 13.6227H10.0498C9.83608 13.6227 9.66281 13.4494 9.66281 13.2357V11.7134ZM9.6 14.0735C9.6 13.8598 9.42673 13.6865 9.21298 13.6865H7.16055C6.81599 13.6865 6.64321 14.1029 6.88654 14.3468L8.93898 16.4044C9.18265 16.6487 9.6 16.4761 9.6 16.1311V14.0735ZM6.97794 10.5106C6.7346 10.7545 6.90738 11.1709 7.25194 11.1709H9.08243C9.29617 11.1709 9.46944 10.9976 9.46944 10.7839V8.94883C9.46944 8.6038 9.05209 8.43123 8.80843 8.67551L6.97794 10.5106ZM14.9004 12.5045C14.9004 12.8495 15.3177 13.022 15.5614 12.7778L17.4707 10.8637C17.714 10.6197 17.5412 10.2034 17.1967 10.2034H15.2874C15.0736 10.2034 14.9004 10.3766 14.9004 10.5904V12.5045ZM17.1052 7.68776C17.4498 7.68776 17.6226 7.27137 17.3792 7.02743L15.4182 5.06149C15.1745 4.81722 14.7572 4.98978 14.7572 5.33481V7.30075C14.7572 7.51449 14.9305 7.68776 15.1442 7.68776H17.1052Z" fill="#8F8F8F"/>
<path d="M27.274 7.46956C27.8066 7.46956 28.2731 7.56641 28.6734 7.7601C29.0737 7.9538 29.382 8.22497 29.5983 8.57363C29.8179 8.91905 29.9276 9.31613 29.9276 9.76486C29.9276 10.2136 29.8179 10.6123 29.5983 10.9609C29.382 11.3064 29.0737 11.5759 28.6734 11.7696C28.2731 11.9633 27.8066 12.0602 27.274 12.0602H24.7075V14.7332H23.4291V7.46956H27.274ZM27.2256 10.9561C27.5129 10.9561 27.7614 10.9077 27.9713 10.8108C28.1844 10.714 28.3474 10.5768 28.4604 10.3992C28.5734 10.2184 28.6299 10.007 28.6299 9.76486C28.6299 9.52274 28.5734 9.3129 28.4604 9.13534C28.3474 8.95456 28.1844 8.81575 27.9713 8.7189C27.7614 8.62205 27.5129 8.57363 27.2256 8.57363H24.7075V10.9561H27.2256ZM35.6814 13.3724C35.3973 13.8438 35.0373 14.2118 34.6015 14.4765C34.1657 14.738 33.6847 14.8687 33.1585 14.8687C32.629 14.8687 32.1561 14.7493 31.7397 14.5104C31.3232 14.2683 30.9988 13.9293 30.7663 13.4935C30.5339 13.0577 30.4177 12.5573 30.4177 11.9924C30.4177 11.4274 30.5339 10.927 30.7663 10.4912C30.9988 10.0554 31.3232 9.71805 31.7397 9.47915C32.1561 9.23703 32.629 9.11597 33.1585 9.11597C33.6879 9.11597 34.1689 9.24672 34.6015 9.50821C35.0373 9.7697 35.3973 10.1361 35.6814 10.6074L35.8218 9.25156H37.1196L36.829 11.9924L37.1196 14.7332H35.8218L35.6814 13.3724ZM31.6961 11.9924C31.6961 12.3539 31.7703 12.6768 31.9188 12.9608C32.0706 13.2449 32.2804 13.4661 32.5483 13.6242C32.8163 13.7824 33.1197 13.8615 33.4587 13.8615C33.7977 13.8615 34.1157 13.784 34.4127 13.6291C34.7129 13.4709 34.9776 13.2514 35.2068 12.9705C35.4392 12.6897 35.6249 12.3636 35.7637 11.9924C35.6249 11.6243 35.4392 11.2999 35.2068 11.019C34.9776 10.7382 34.7129 10.5187 34.4127 10.3605C34.1157 10.2023 33.7977 10.1232 33.4587 10.1232C33.1197 10.1232 32.8163 10.2039 32.5483 10.3653C32.2804 10.5235 32.0706 10.7446 31.9188 11.0287C31.7703 11.3096 31.6961 11.6308 31.6961 11.9924ZM39.3287 9.25156L39.5757 10.7624C39.7468 10.2523 40.0099 9.85041 40.365 9.55663C40.7234 9.26286 41.1624 9.11597 41.6822 9.11597C41.8113 9.11597 41.9436 9.12566 42.0792 9.14503C42.2148 9.16117 42.3343 9.18377 42.4376 9.21282V10.3169C42.2955 10.2781 42.1406 10.2491 41.9727 10.2297C41.8081 10.2104 41.6499 10.2007 41.4981 10.2007C41.1398 10.2007 40.8218 10.2798 40.5442 10.4379C40.2666 10.5961 40.0487 10.8302 39.8905 11.1401C39.7355 11.4468 39.658 11.818 39.658 12.2538V14.7332H38.399V11.0045L38.0697 9.25156H39.3287ZM47.9954 13.3724C47.7113 13.8438 47.3514 14.2118 46.9156 14.4765C46.4798 14.738 45.9987 14.8687 45.4725 14.8687C44.9431 14.8687 44.4702 14.7493 44.0537 14.5104C43.6373 14.2683 43.3128 13.9293 43.0804 13.4935C42.848 13.0577 42.7317 12.5573 42.7317 11.9924C42.7317 11.4274 42.848 10.927 43.0804 10.4912C43.3128 10.0554 43.6373 9.71805 44.0537 9.47915C44.4702 9.23703 44.9431 9.11597 45.4725 9.11597C46.002 9.11597 46.483 9.24672 46.9156 9.50821C47.3514 9.7697 47.7113 10.1361 47.9954 10.6074L48.1359 9.25156H49.4336L49.1431 11.9924L49.4336 14.7332H48.1359L47.9954 13.3724ZM44.0101 11.9924C44.0101 12.3539 44.0844 12.6768 44.2329 12.9608C44.3846 13.2449 44.5944 13.4661 44.8624 13.6242C45.1303 13.7824 45.4338 13.8615 45.7728 13.8615C46.1117 13.8615 46.4297 13.784 46.7267 13.6291C47.0269 13.4709 47.2917 13.2514 47.5209 12.9705C47.7533 12.6897 47.9389 12.3636 48.0777 11.9924C47.9389 11.6243 47.7533 11.2999 47.5209 11.019C47.2917 10.7382 47.0269 10.5187 46.7267 10.3605C46.4297 10.2023 46.1117 10.1232 45.7728 10.1232C45.4338 10.1232 45.1303 10.2039 44.8624 10.3653C44.5944 10.5235 44.3846 10.7446 44.2329 11.0287C44.0844 11.3096 44.0101 11.6308 44.0101 11.9924ZM54.5787 7.46956C55.1113 7.46956 55.5778 7.56641 55.9781 7.7601C56.3784 7.9538 56.6867 8.22497 56.903 8.57363C57.1225 8.91905 57.2323 9.31613 57.2323 9.76486C57.2323 10.2136 57.1225 10.6123 56.903 10.9609C56.6867 11.3064 56.3784 11.5759 55.9781 11.7696C55.5778 11.9633 55.1113 12.0602 54.5787 12.0602H52.0122V14.7332H50.7338V7.46956H54.5787ZM54.5302 10.9561C54.8176 10.9561 55.0661 10.9077 55.276 10.8108C55.489 10.714 55.6521 10.5768 55.765 10.3992C55.878 10.2184 55.9345 10.007 55.9345 9.76486C55.9345 9.52274 55.878 9.3129 55.765 9.13534C55.6521 8.95456 55.489 8.81575 55.276 8.7189C55.0661 8.62205 54.8176 8.57363 54.5302 8.57363H52.0122V10.9561H54.5302ZM61.0253 14.8687C60.3668 14.8687 59.7841 14.7493 59.2772 14.5104C58.7736 14.2683 58.3814 13.9293 58.1005 13.4935C57.8229 13.0577 57.6841 12.5573 57.6841 11.9924C57.6841 11.4274 57.8229 10.927 58.1005 10.4912C58.3814 10.0554 58.7736 9.71805 59.2772 9.47915C59.7841 9.23703 60.3668 9.11597 61.0253 9.11597C61.6839 9.11597 62.265 9.23703 62.7686 9.47915C63.2754 9.71805 63.6677 10.0554 63.9453 10.4912C64.2262 10.927 64.3666 11.4274 64.3666 11.9924C64.3666 12.5573 64.2262 13.0577 63.9453 13.4935C63.6677 13.9293 63.2754 14.2683 62.7686 14.5104C62.265 14.7493 61.6839 14.8687 61.0253 14.8687ZM58.9625 11.9924C58.9625 12.3765 59.0464 12.7106 59.2143 12.9947C59.3821 13.2788 59.621 13.4983 59.9309 13.6533C60.2409 13.805 60.6057 13.8809 61.0253 13.8809C61.445 13.8809 61.8098 13.805 62.1197 13.6533C62.4296 13.4983 62.6685 13.2788 62.8364 12.9947C63.0043 12.7106 63.0882 12.3765 63.0882 11.9924C63.0882 11.6114 63.0043 11.2789 62.8364 10.9948C62.6685 10.7107 62.4296 10.4912 62.1197 10.3363C61.8098 10.1813 61.445 10.1038 61.0253 10.1038C60.6057 10.1038 60.2409 10.1813 59.9309 10.3363C59.621 10.4912 59.3821 10.7107 59.2143 10.9948C59.0464 11.2789 58.9625 11.6114 58.9625 11.9924ZM66.3875 9.25156L66.6345 10.7624C66.8056 10.2523 67.0687 9.85041 67.4238 9.55663C67.7821 9.26286 68.2212 9.11597 68.7409 9.11597C68.8701 9.11597 69.0024 9.12566 69.138 9.14503C69.2736 9.16117 69.393 9.18377 69.4963 9.21282V10.3169C69.3543 10.2781 69.1993 10.2491 69.0315 10.2297C68.8668 10.2104 68.7086 10.2007 68.5569 10.2007C68.1986 10.2007 67.8806 10.2798 67.603 10.4379C67.3253 10.5961 67.1074 10.8302 66.9492 11.1401C66.7943 11.4468 66.7168 11.818 66.7168 12.2538V14.7332H65.4578V11.0045L65.1285 9.25156H66.3875ZM69.7261 9.64864L70.8979 9.34841L71.4209 7.81821H72.1569V9.25156H74.704V10.22H72.1569V12.5928C72.1569 12.8995 72.1989 13.1432 72.2828 13.324C72.37 13.5048 72.504 13.6355 72.6848 13.7163C72.8688 13.7937 73.1125 13.8325 73.416 13.8325C73.6936 13.8325 73.9422 13.8034 74.1617 13.7453C74.3812 13.684 74.5943 13.5936 74.8009 13.4741V14.5104C74.6136 14.6073 74.3667 14.6912 74.06 14.7622C73.7533 14.8332 73.4482 14.8687 73.1448 14.8687C72.3732 14.8687 71.8051 14.6847 71.4403 14.3167C71.0787 13.9455 70.8979 13.4354 70.8979 12.7865V10.22H69.7261V9.64864Z" fill="#8F8F8F"/>
</svg>
