<svg width="139" height="36" viewBox="0 0 139 36" fill="none" xmlns="http://www.w3.org/2000/svg">
<path fill-rule="evenodd" clip-rule="evenodd" d="M24.197 16.8509C24.5585 16.8509 24.8515 16.5579 24.8515 16.1964V13.6218C24.8515 13.2603 24.5585 12.9673 24.197 12.9673H19.9427C19.5812 12.9673 19.2881 13.2603 19.2881 13.6218V16.1964C19.2881 16.5579 19.5812 16.8509 19.9427 16.8509H24.197ZM16.3424 19.5127C16.3424 19.1512 16.6355 18.8582 16.997 18.8582H21.2732C21.6347 18.8582 21.9278 19.1512 21.9278 19.5127V22.0873C21.9278 22.4488 21.6347 22.7418 21.2732 22.7418H16.997C16.6355 22.7418 16.3424 22.4488 16.3424 22.0873V19.5127ZM16.2362 23.5043C16.2362 23.1429 15.9431 22.8498 15.5817 22.8498H12.1104C11.5277 22.8498 11.2355 23.554 11.647 23.9666L15.1182 27.4465C15.5303 27.8596 16.2362 27.5678 16.2362 26.9843V23.5043ZM11.8016 17.4785C11.39 17.891 11.6822 18.5953 12.265 18.5953H15.3608C15.7223 18.5953 16.0154 18.3022 16.0154 17.9407V14.8371C16.0154 14.2536 15.3095 13.9617 14.8974 14.3748L11.8016 17.4785ZM25.2005 20.8506C25.2005 21.4341 25.9064 21.726 26.3185 21.3129L29.5476 18.0757C29.9591 17.6631 29.6669 16.9589 29.0841 16.9589H25.8551C25.4936 16.9589 25.2005 17.2519 25.2005 17.6134V20.8506ZM28.9296 12.7043C29.5124 12.7043 29.8046 12.0001 29.393 11.5875L26.0764 8.26257C25.6643 7.84944 24.9584 8.14129 24.9584 8.72483V12.0498C24.9584 12.4113 25.2514 12.7043 25.6129 12.7043H28.9296Z" fill="black"/>
<path d="M46.1276 11.5699C47.0285 11.5699 47.8174 11.7337 48.4944 12.0613C49.1715 12.3888 49.6929 12.8475 50.0587 13.4371C50.43 14.0213 50.6156 14.6929 50.6156 15.4518C50.6156 16.2108 50.43 16.885 50.0587 17.4747C49.6929 18.0589 49.1715 18.5148 48.4944 18.8424C47.8174 19.17 47.0285 19.3338 46.1276 19.3338H41.787V23.8546H39.6249V11.5699H46.1276ZM46.0457 17.4665C46.5316 17.4665 46.952 17.3846 47.3069 17.2208C47.6673 17.057 47.943 16.825 48.1341 16.5247C48.3252 16.2189 48.4207 15.8613 48.4207 15.4518C48.4207 15.0423 48.3252 14.6875 48.1341 14.3872C47.943 14.0814 47.6673 13.8466 47.3069 13.6828C46.952 13.519 46.5316 13.4371 46.0457 13.4371H41.787V17.4665H46.0457ZM60.3467 21.5532C59.8663 22.3504 59.2575 22.9728 58.5204 23.4205C57.7833 23.8627 56.9698 24.0839 56.0799 24.0839C55.1844 24.0839 54.3846 23.8819 53.6802 23.4778C52.9759 23.0683 52.4272 22.495 52.0341 21.758C51.641 21.0209 51.4444 20.1746 51.4444 19.2191C51.4444 18.2637 51.641 17.4174 52.0341 16.6803C52.4272 15.9432 52.9759 15.3727 53.6802 14.9686C54.3846 14.5591 55.1844 14.3544 56.0799 14.3544C56.9753 14.3544 57.7888 14.5755 58.5204 15.0178C59.2575 15.46 59.8663 16.0797 60.3467 16.8769L60.5842 14.5837H62.7791L62.2877 19.2191L62.7791 23.8546H60.5842L60.3467 21.5532ZM53.6065 19.2191C53.6065 19.8306 53.7321 20.3766 53.9833 20.8571C54.2399 21.3376 54.5948 21.7116 55.0479 21.9791C55.5011 22.2466 56.0143 22.3804 56.5876 22.3804C57.1609 22.3804 57.6987 22.2494 58.201 21.9873C58.7088 21.7197 59.1565 21.3485 59.5441 20.8735C59.9372 20.3985 60.2512 19.847 60.486 19.2191C60.2512 18.5967 59.9372 18.048 59.5441 17.573C59.1565 17.098 58.7088 16.7267 58.201 16.4592C57.6987 16.1916 57.1609 16.0579 56.5876 16.0579C56.0143 16.0579 55.5011 16.1944 55.0479 16.4674C54.5948 16.7349 54.2399 17.1089 53.9833 17.5894C53.7321 18.0644 53.6065 18.6076 53.6065 19.2191ZM66.5154 14.5837L66.9331 17.1389C67.2225 16.2763 67.6675 15.5965 68.2681 15.0997C68.8741 14.6028 69.6166 14.3544 70.4957 14.3544C70.7141 14.3544 70.9379 14.3708 71.1672 14.4035C71.3966 14.4308 71.5986 14.4691 71.7733 14.5182V16.3855C71.533 16.3199 71.271 16.2708 70.9871 16.238C70.7086 16.2053 70.4411 16.1889 70.1845 16.1889C69.5784 16.1889 69.0406 16.3227 68.5711 16.5902C68.1015 16.8577 67.733 17.2536 67.4655 17.7777C67.2034 18.2964 67.0723 18.9243 67.0723 19.6614V23.8546H64.943V17.5484L64.3861 14.5837H66.5154ZM81.1731 21.5532C80.6926 22.3504 80.0839 22.9728 79.3468 23.4205C78.6097 23.8627 77.7962 24.0839 76.9062 24.0839C76.0108 24.0839 75.2109 23.8819 74.5066 23.4778C73.8023 23.0683 73.2536 22.495 72.8605 21.758C72.4674 21.0209 72.2708 20.1746 72.2708 19.2191C72.2708 18.2637 72.4674 17.4174 72.8605 16.6803C73.2536 15.9432 73.8023 15.3727 74.5066 14.9686C75.2109 14.5591 76.0108 14.3544 76.9062 14.3544C77.8016 14.3544 78.6152 14.5755 79.3468 15.0178C80.0839 15.46 80.6926 16.0797 81.1731 16.8769L81.4106 14.5837H83.6055L83.1141 19.2191L83.6055 23.8546H81.4106L81.1731 21.5532ZM74.4329 19.2191C74.4329 19.8306 74.5585 20.3766 74.8096 20.8571C75.0663 21.3376 75.4211 21.7116 75.8743 21.9791C76.3275 22.2466 76.8407 22.3804 77.414 22.3804C77.9873 22.3804 78.5251 22.2494 79.0274 21.9873C79.5352 21.7197 79.9829 21.3485 80.3705 20.8735C80.7636 20.3985 81.0776 19.847 81.3123 19.2191C81.0776 18.5967 80.7636 18.048 80.3705 17.573C79.9829 17.098 79.5352 16.7267 79.0274 16.4592C78.5251 16.1916 77.9873 16.0579 77.414 16.0579C76.8407 16.0579 76.3275 16.1944 75.8743 16.4674C75.4211 16.7349 75.0663 17.1089 74.8096 17.5894C74.5585 18.0644 74.4329 18.6076 74.4329 19.2191ZM92.3071 11.5699C93.208 11.5699 93.997 11.7337 94.674 12.0613C95.351 12.3888 95.8724 12.8475 96.2382 13.4371C96.6095 14.0213 96.7951 14.6929 96.7951 15.4518C96.7951 16.2108 96.6095 16.885 96.2382 17.4747C95.8724 18.0589 95.351 18.5148 94.674 18.8424C93.997 19.17 93.208 19.3338 92.3071 19.3338H87.9665V23.8546H85.8044V11.5699H92.3071ZM92.2252 17.4665C92.7112 17.4665 93.1316 17.3846 93.4865 17.2208C93.8468 17.057 94.1225 16.825 94.3136 16.5247C94.5047 16.2189 94.6003 15.8613 94.6003 15.4518C94.6003 15.0423 94.5047 14.6875 94.3136 14.3872C94.1225 14.0814 93.8468 13.8466 93.4865 13.6828C93.1316 13.519 92.7112 13.4371 92.2252 13.4371H87.9665V17.4665H92.2252ZM103.21 24.0839C102.096 24.0839 101.111 23.8819 100.254 23.4778C99.4019 23.0683 98.7385 22.495 98.2635 21.758C97.794 21.0209 97.5592 20.1746 97.5592 19.2191C97.5592 18.2637 97.794 17.4174 98.2635 16.6803C98.7385 15.9432 99.4019 15.3727 100.254 14.9686C101.111 14.5591 102.096 14.3544 103.21 14.3544C104.324 14.3544 105.307 14.5591 106.158 14.9686C107.016 15.3727 107.679 15.9432 108.149 16.6803C108.624 17.4174 108.861 18.2637 108.861 19.2191C108.861 20.1746 108.624 21.0209 108.149 21.758C107.679 22.495 107.016 23.0683 106.158 23.4778C105.307 23.8819 104.324 24.0839 103.21 24.0839ZM99.7213 19.2191C99.7213 19.8689 99.8633 20.434 100.147 20.9144C100.431 21.3949 100.835 21.7662 101.359 22.0282C101.883 22.2848 102.5 22.4132 103.21 22.4132C103.92 22.4132 104.537 22.2848 105.061 22.0282C105.585 21.7662 105.989 21.3949 106.273 20.9144C106.557 20.434 106.699 19.8689 106.699 19.2191C106.699 18.5749 106.557 18.0125 106.273 17.532C105.989 17.0516 105.585 16.6803 105.061 16.4182C104.537 16.1562 103.92 16.0251 103.21 16.0251C102.5 16.0251 101.883 16.1562 101.359 16.4182C100.835 16.6803 100.431 17.0516 100.147 17.532C99.8633 18.0125 99.7213 18.5749 99.7213 19.2191ZM112.279 14.5837L112.697 17.1389C112.986 16.2763 113.431 15.5965 114.032 15.0997C114.638 14.6028 115.38 14.3544 116.259 14.3544C116.478 14.3544 116.702 14.3708 116.931 14.4035C117.16 14.4308 117.362 14.4691 117.537 14.5182V16.3855C117.297 16.3199 117.035 16.2708 116.751 16.238C116.472 16.2053 116.205 16.1889 115.948 16.1889C115.342 16.1889 114.804 16.3227 114.335 16.5902C113.865 16.8577 113.497 17.2536 113.229 17.7777C112.967 18.2964 112.836 18.9243 112.836 19.6614V23.8546H110.707V17.5484L110.15 14.5837H112.279ZM117.925 15.2553L119.907 14.7475L120.792 12.1595H122.037V14.5837H126.345V16.2217H122.037V20.2347C122.037 20.7534 122.108 21.1656 122.25 21.4713C122.397 21.7771 122.624 21.9982 122.929 22.1347C123.241 22.2657 123.653 22.3313 124.166 22.3313C124.636 22.3313 125.056 22.2821 125.427 22.1838C125.799 22.0801 126.159 21.9272 126.508 21.7252V23.4778C126.192 23.6416 125.774 23.7836 125.255 23.9037C124.737 24.0238 124.221 24.0839 123.707 24.0839C122.403 24.0839 121.442 23.7727 120.825 23.1502C120.213 22.5223 119.907 21.6597 119.907 20.5623V16.2217H117.925V15.2553Z" fill="black"/>
</svg>
